HIERARCHY
ROOT Hips
{
    OFFSET 0.000000 0.000000 0.000000
    CHANNELS 6 Xposition Yposition Zposition Zrotation Xrotation Yrotation
    JOINT Spine
    {
        OFFSET -0.000000 8.172037 0.000000
        CHANNELS 3 Zrotation Xrotation Yrotation
        JOINT Spine1
        {
            OFFSET -0.000000 18.392342 0.000000
            CHANNELS 3 Zrotation Xrotation Yrotation
            JOINT Neck
            {
                OFFSET -0.000000 18.316809 1.665164
                CHANNELS 3 Zrotation Xrotation Yrotation
                JOINT Head
                {
                    OFFSET -0.000000 13.952258 -1.993180
                    CHANNELS 3 Zrotation Xrotation Yrotation
                    End Site
                    {
                        OFFSET -0.000000 24.914745 0.000000
                    }
                }
            }
            JOINT LeftShoulder
            {
                OFFSET 4.035833 16.062790 -0.310290
                CHANNELS 3 Zrotation Xrotation Yrotation
                JOINT LeftArm
                {
                    OFFSET 12.395579 0.000000 0.000000
                    CHANNELS 3 Zrotation Xrotation Yrotation
                    JOINT LeftForeArm
                    {
                        OFFSET 26.414022 0.000000 0.000000
                        CHANNELS 3 Zrotation Xrotation Yrotation
                        JOINT LeftHand
                        {
                            OFFSET 28.641636 0.000000 0.000000
                            CHANNELS 3 Zrotation Xrotation Yrotation
                            End Site
                            {
                                OFFSET 14.948848 0.000000 0.000000
                            }
                        }
                    }
                }
            }
            JOINT RightShoulder
            {
                OFFSET -3.919767 16.062790 -0.310290
                CHANNELS 3 Zrotation Xrotation Yrotation
                JOINT RightArm
                {
                    OFFSET -12.395579 0.000000 0.000000
                    CHANNELS 3 Zrotation Xrotation Yrotation
                    JOINT RightForeArm
                    {
                        OFFSET -26.414022 0.000000 0.000000
                        CHANNELS 3 Zrotation Xrotation Yrotation
                        JOINT RightHand
                        {
                            OFFSET -28.641636 0.000000 0.000000
                            CHANNELS 3 Zrotation Xrotation Yrotation
                            End Site
                            {
                                OFFSET -14.948848 0.000000 0.000000
                            }
                        }
                    }
                }
            }
        }
    }
    JOINT LeftUpLeg
    {
        OFFSET 9.965899 0.000000 0.000000
        CHANNELS 3 Zrotation Xrotation Yrotation
        JOINT LeftLeg
        {
            OFFSET -0.000000 -49.671295 0.000000
            CHANNELS 3 Zrotation Xrotation Yrotation
            JOINT LeftFoot
            {
                OFFSET -0.000000 -36.155865 0.000000
                CHANNELS 3 Zrotation Xrotation Yrotation
                JOINT LeftToeBase
                {
                    OFFSET -0.000000 -6.477834 14.948848
                    CHANNELS 3 Zrotation Xrotation Yrotation
                    End Site
                    {
                        OFFSET -0.000000 0.000000 3.986359
                    }
                }
            }
        }
    }
    JOINT RightUpLeg
    {
        OFFSET -9.965899 0.000000 0.000000
        CHANNELS 3 Zrotation Xrotation Yrotation
        JOINT RightLeg
        {
            OFFSET -0.000000 -49.671295 0.000000
            CHANNELS 3 Zrotation Xrotation Yrotation
            JOINT RightFoot
            {
                OFFSET -0.000000 -36.155865 0.000000
                CHANNELS 3 Zrotation Xrotation Yrotation
                JOINT RightToeBase
                {
                    OFFSET -0.000000 -6.477834 14.948848
                    CHANNELS 3 Zrotation Xrotation Yrotation
                    End Site
                    {
                        OFFSET -0.000000 0.000000 3.986359
                    }
                }
            }
        }
    }
}
MOTION
Frames:    11
Frame Time:    0.010000
-14.089847    94.682312    25.668564    -1.872260    -6.647235    -156.799454    -8.533670    -12.891013    1.277398    4.856442    -0.926769    2.282482    -5.883715    21.201851    -13.289825    10.858188    -9.673666    -11.695528    6.875078    12.631809    12.539864    -82.489029    -5.540742    -10.558808    -7.754814    -16.039814    -39.966854    26.749134    -20.024559    -5.744514    -7.636455    3.254307    0.868479    57.143734    12.174812    12.259200    18.161934    14.041215    47.525856    -8.956396    5.685997    5.248165    3.948106    11.565090    10.312100    -4.186399    5.254323    7.735473    -4.161703    -4.796196    -5.713291    0.000000    0.000000    0.000000    -13.766411    -23.192970    1.169985    11.352212    33.712082    2.691359    -14.352823    -11.848186    0.426268    0.000000    0.000000    0.000000    
-14.061856    94.539932    26.027807    -1.611448    -6.495202    -156.547104    -7.904064    -12.478964    1.632353    4.059326    -1.448460    2.549164    -6.616473    21.339062    -13.554901    12.134099    -9.215867    -11.779655    7.030022    12.267241    12.951689    -82.209137    -6.076378    -10.606467    -5.995039    -18.497957    -39.976833    27.409740    -21.805157    -5.494112    -7.920245    4.133990    0.431751    56.619495    12.320501    14.601150    17.541491    13.380528    47.150658    -8.396003    5.379176    5.309939    4.211660    11.738783    11.005377    -4.235902    4.778368    6.133876    -4.165569    -5.598589    -5.037874    0.000000    0.000000    0.000000    -13.806159    -23.669865    0.630430    11.435555    34.521324    2.379361    -13.899977    -11.925938    1.281080    0.000000    0.000000    0.000000    
-14.071033    94.359169    26.340611    -1.395573    -6.542435    -156.034210    -7.297785    -12.633215    1.916864    3.120719    -1.400969    2.763917    -7.200037    21.567621    -13.979132    13.205113    -9.179090    -12.038077    7.260735    10.662736    11.992726    -81.764153    -8.572930    -8.936568    -5.165099    -20.906464    -41.436260    29.402107    -23.795351    -4.453993    -8.000919    2.627066    1.842753    56.647144    11.173275    12.652752    17.492107    13.655494    47.862503    -8.656493    5.554523    5.117059    4.339544    11.745983    10.773806    -4.303432    4.106954    5.447811    -4.037781    -6.259711    -4.576987    0.000000    0.000000    0.000000    -14.204590    -24.173832    -0.165849    11.704687    35.336651    2.054550    -13.443050    -12.216619    2.076149    0.000000    0.000000    0.000000    
-14.083912    94.207870    26.712221    -1.089454    -6.786562    -155.693848    -6.715026    -12.500748    2.182093    2.208483    -2.022376    2.957345    -7.404662    21.679266    -14.269381    13.717282    -9.033147    -12.265739    7.544395    10.241083    12.391714    -81.597206    -8.401341    -9.169381    -1.533834    -23.148201    -40.812275    30.209669    -24.524542    -3.460758    -8.143575    2.781982    1.855405    56.250080    11.642163    13.541421    16.602207    12.565420    48.071667    -8.591598    4.804695    5.189627    4.332862    11.519463    9.979273    -4.378890    3.344414    6.179892    -3.539771    -6.770859    -4.550738    0.000000    0.000000    0.000000    -14.670182    -24.967360    -0.601361    12.282966    36.032413    1.522837    -12.825234    -12.293953    2.892263    0.000000    0.000000    0.000000    
-14.121187    94.093964    26.991001    -0.739069    -6.722949    -155.250854    -5.666600    -12.150093    2.538797    0.932915    -2.720111    3.164510    -7.792258    22.145531    -14.499504    14.716189    -9.151175    -12.330770    7.909416    9.635722    12.262683    -80.832855    -10.032142    -8.830627    0.439416    -24.246780    -40.718300    31.749266    -24.827908    -2.820335    -8.326172    2.651276    2.047947    56.112720    12.070429    13.680797    15.347243    11.643801    48.453590    -8.022309    4.405450    5.115638    4.501716    11.515061    9.205157    -4.344362    2.780182    6.491756    -3.239669    -7.385638    -4.202644    0.000000    0.000000    0.000000    -14.989026    -25.497028    -1.303928    12.601854    36.982056    1.344998    -11.742187    -12.310959    3.844536    0.000000    0.000000    0.000000    
-14.105595    93.955704    27.300066    -0.410008    -6.862368    -154.883316    -5.364682    -11.340108    2.945000    0.690811    -4.312559    3.504000    -8.551535    22.533276    -14.997395    15.557769    -8.641746    -12.812654    7.844098    9.395873    12.096412    -79.830551    -11.738420    -8.755621    1.349737    -25.118465    -41.073620    34.904156    -25.075033    -1.456688    -9.016243    3.176247    1.438401    55.874760    12.867609    14.470675    14.358196    10.351200    48.611038    -7.506841    3.574414    4.653801    4.580425    11.188845    8.325754    -4.138853    2.566977    6.685989    -3.249792    -8.197563    -3.767226    0.000000    0.000000    0.000000    -15.418827    -26.336308    -2.180083    12.786162    38.132793    1.476112    -10.511486    -12.319649    4.753413    0.000000    0.000000    0.000000    
-14.069399    93.859863    27.615377    -0.104864    -7.176033    -154.570145    -4.788593    -11.007567    3.215699    -0.258395    -5.251654    3.665480    -8.698016    22.787500    -15.305240    16.060163    -8.683213    -13.053188    8.001061    9.118940    12.494625    -78.711464    -13.275756    -8.944232    2.594238    -25.631287    -41.274086    37.828407    -24.908197    -0.519072    -9.325081    3.150430    1.438395    55.641685    12.853914    14.870497    13.749541    9.762645    48.360519    -7.107979    3.298487    4.835899    4.562867    10.607276    7.481767    -3.695378    2.555259    7.969056    -4.111383    -8.864539    -4.842110    0.000000    0.000000    0.000000    -15.948359    -27.368870    -3.117213    12.816853    39.307178    1.694563    -9.059928    -12.248719    5.986370    0.000000    0.000000    0.000000    
-13.999007    93.743462    27.818684    0.200638    -7.201193    -154.333313    -4.237227    -10.271430    3.396902    -1.131607    -6.501934    3.713597    -9.420712    23.069454    -15.419968    17.566414    -8.359197    -12.970548    8.249441    8.883859    13.143950    -76.997330    -15.514356    -8.851636    1.740536    -25.611301    -42.300251    42.204403    -24.927292    0.214365    -9.442111    3.137352    1.734205    55.291256    12.703566    14.958784    13.373028    9.309342    48.060024    -6.486547    3.086922    4.710585    4.874648    10.262497    6.901769    -3.544334    2.796196    8.126388    -4.825771    -9.840415    -5.048897    0.000000    0.000000    0.000000    -16.192188    -28.080238    -3.797584    12.733933    40.368183    2.213745    -7.766779    -12.135275    7.043633    0.000000    0.000000    0.000000    
-13.905830    93.701157    27.982500    0.392162    -7.288795    -154.186432    -3.884979    -9.854835    3.601835    -1.830038    -7.251817    3.820905    -9.744243    23.108335    -15.644521    18.212406    -8.138058    -13.128893    8.255747    8.047568    13.105025    -74.910828    -17.495922    -8.105535    2.863581    -24.909943    -43.000393    46.458122    -23.059538    2.089455    -9.657290    3.030081    2.040358    55.114513    12.510433    14.912161    12.829585    8.753405    48.028725    -6.018902    2.816107    4.290324    5.307051    9.742365    6.846280    -3.823094    3.308813    8.453103    -5.538085    -10.270991    -5.828566    0.000000    0.000000    0.000000    -16.453745    -28.810658    -3.959806    12.864187    41.402580    2.550009    -6.758614    -12.036499    7.985688    0.000000    0.000000    0.000000    
-13.763717    93.698959    28.109497    0.466750    -7.495574    -154.099579    -3.898777    -9.545901    3.746874    -2.240342    -7.933799    3.917147    -10.476531    22.901840    -15.774572    19.215586    -7.413446    -13.200517    8.046156    7.434556    13.311537    -73.243385    -17.733614    -7.655035    4.773491    -26.445484    -44.252872    50.309486    -23.162600    3.565102    -9.916953    3.097912    2.240785    55.024902    12.188473    15.145465    12.160664    8.392693    47.415672    -5.173590    2.879633    3.934319    5.850170    9.040164    6.962818    -4.648025    4.186925    7.515676    -5.448892    -10.577118    -5.475259    0.000000    0.000000    0.000000    -16.741693    -29.474779    -3.824344    12.974190    42.159515    3.030428    -6.048660    -12.211935    8.282354    0.000000    0.000000    0.000000    
-13.696230    93.811646    28.134945    0.509124    -7.653451    -154.202423    -3.650123    -10.029389    4.097973    -2.862638    -7.849453    4.221906    -11.278843    23.587034    -15.892992    20.726171    -7.458436    -13.136163    7.890330    7.059828    12.583557    -71.602661    -20.051987    -7.087005    6.939608    -26.069921    -45.998013    52.838253    -20.830074    5.558614    -9.994963    3.431852    2.682023    54.908264    11.790848    15.251597    11.451553    7.652696    46.698235    -4.615121    2.563168    3.681688    6.279746    8.488103    6.872234    -5.521871    5.016843    6.464684    -4.691001    -10.443310    -4.373878    0.000000    0.000000    0.000000    -16.878719    -29.920147    -3.236043    13.203417    42.473732    3.247535    -5.222079    -11.881675    7.776254    0.000000    0.000000    0.000000    
